<svg width="26" height="26" viewBox="0 0 26 26" fill="none" xmlns="http://www.w3.org/2000/svg">
<path d="M6.5 18.4167C6.5 16.25 10.8333 15.0583 13 15.0583C15.1667 15.0583 19.5 16.25 19.5 18.4167V19.5H6.5M16.25 9.75C16.25 10.612 15.9076 11.4386 15.2981 12.0481C14.6886 12.6576 13.862 13 13 13C12.138 13 11.3114 12.6576 10.7019 12.0481C10.0924 11.4386 9.75 10.612 9.75 9.75C9.75 8.88805 10.0924 8.0614 10.7019 7.4519C11.3114 6.84241 12.138 6.5 13 6.5C13.862 6.5 14.6886 6.84241 15.2981 7.4519C15.9076 8.0614 16.25 8.88805 16.25 9.75ZM3.25 5.41667V20.5833C3.25 21.158 3.47827 21.7091 3.8846 22.1154C4.29093 22.5217 4.84203 22.75 5.41667 22.75H20.5833C21.158 22.75 21.7091 22.5217 22.1154 22.1154C22.5217 21.7091 22.75 21.158 22.75 20.5833V5.41667C22.75 4.84203 22.5217 4.29093 22.1154 3.8846C21.7091 3.47827 21.158 3.25 20.5833 3.25H5.41667C4.84203 3.25 4.29093 3.47827 3.8846 3.8846C3.47827 4.29093 3.25 4.84203 3.25 5.41667Z" fill="white"/>
</svg>
